<?xml version="1.0" standalone="no"?>
<!DOCTYPE svg PUBLIC "-//W3C//DTD SVG 20010904//EN"
 "http://www.w3.org/TR/2001/REC-SVG-20010904/DTD/svg10.dtd">
<svg version="1.0" xmlns="http://www.w3.org/2000/svg"
 width="400.000000pt" height="400.000000pt" viewBox="0 0 400.000000 400.000000"
 preserveAspectRatio="xMidYMid meet">

<g transform="translate(0.000000,400.000000) scale(0.100000,-0.100000)"
fill="#000000" stroke="none">
<path d="M1825 3859 c-356 -34 -716 -181 -995 -406 -107 -87 -274 -263 -353
-373 -86 -122 -203 -354 -250 -498 -199 -611 -78 -1266 326 -1767 79 -98 217
-232 317 -307 l74 -56 37 18 c20 11 40 16 44 12 5 -4 5 -2 2 4 -3 6 6 17 21
25 15 7 46 26 69 41 23 15 44 28 47 28 3 0 35 18 71 40 37 22 71 37 77 34 7
-4 8 -2 4 5 -4 6 0 14 11 18 10 3 41 21 70 39 28 18 54 30 57 27 3 -4 6 -2 6
4 0 12 60 39 75 35 5 -2 7 0 3 4 -7 6 52 54 67 54 4 0 27 14 52 32 25 17 43
25 39 17 -5 -10 -4 -10 6 1 7 8 29 17 48 19 77 7 35 11 -117 11 -126 0 -176 4
-237 20 -179 45 -327 163 -405 321 -71 144 -72 160 -69 768 3 522 4 538 25
601 65 191 209 337 405 408 l73 27 575 0 c566 0 576 0 645 -22 195 -62 351
-217 417 -413 21 -62 23 -86 28 -488 l5 -423 48 31 c26 16 50 30 53 30 3 0 18
8 32 19 33 23 119 71 127 71 3 0 3 -5 -1 -12 -4 -7 -3 -8 4 -4 6 4 8 14 5 24
-3 9 -3 14 2 10 4 -4 21 2 36 13 16 11 34 17 40 13 8 -4 9 -3 5 5 -4 6 0 14
11 18 10 3 30 15 45 25 15 11 37 20 47 21 11 0 18 4 16 7 -4 6 27 25 251 156
22 13 43 21 47 18 5 -5 3 20 -3 36 -1 3 -1 17 0 31 2 41 -38 224 -76 344 -45
142 -166 384 -251 505 -88 123 -320 355 -443 443 -122 86 -354 203 -495 249
-253 82 -511 111 -770 87z"/>
<path d="M1503 2876 c-175 -43 -316 -172 -375 -343 -23 -68 -23 -71 -23 -543
0 -470 0 -476 23 -542 46 -132 137 -240 254 -299 104 -53 149 -59 413 -59 240
0 240 0 277 25 20 14 40 25 43 25 4 0 26 14 51 31 24 16 53 31 64 32 10 1 17
3 15 6 -8 7 55 42 65 36 6 -4 7 2 3 12 -3 10 -3 15 2 11 4 -4 27 6 51 22 23
17 45 30 49 30 4 0 26 14 51 31 24 16 53 31 64 32 10 1 17 4 15 7 -2 3 22 21
53 38 31 18 64 37 72 42 53 33 202 120 206 120 3 0 2 -5 -2 -12 -5 -7 -3 -8 5
-4 7 5 10 10 7 13 -3 3 2 12 10 21 13 13 15 69 12 436 -4 403 -5 424 -26 487
-52 156 -164 270 -328 331 -58 22 -70 22 -529 25 -357 1 -483 -1 -522 -11z
m1141 -237 c51 -40 50 -118 -1 -159 -38 -29 -86 -26 -125 9 -27 24 -33 36 -33
71 0 81 95 129 159 79z m-454 -95 c286 -95 464 -395 406 -685 -27 -131 -74
-219 -170 -315 -132 -132 -287 -192 -461 -181 -252 18 -456 175 -542 419 -37
102 -38 260 -4 363 74 225 256 383 489 425 72 13 198 1 282 -26z"/>
<path d="M1920 2359 c-109 -21 -224 -107 -274 -206 -99 -197 -20 -441 174
-536 301 -147 633 109 565 437 -33 157 -155 276 -314 306 -62 11 -88 11 -151
-1z"/>
</g>
</svg>
