<?xml version="1.0" standalone="no"?>
<!DOCTYPE svg PUBLIC "-//W3C//DTD SVG 20010904//EN"
 "http://www.w3.org/TR/2001/REC-SVG-20010904/DTD/svg10.dtd">
<svg version="1.0" xmlns="http://www.w3.org/2000/svg"
 width="900.000000pt" height="600.000000pt" viewBox="0 0 900.000000 600.000000"
 preserveAspectRatio="xMidYMid meet">

<g transform="translate(0.000000,600.000000) scale(0.100000,-0.100000)"
fill="#000000" stroke="none">
<path d="M4240 5989 c-8 -4 -73 -12 -143 -19 -71 -6 -136 -15 -145 -19 -10 -5
-60 -17 -112 -26 -52 -10 -99 -21 -105 -25 -5 -4 -26 -10 -45 -14 -45 -8 -232
-66 -245 -76 -5 -4 -28 -13 -50 -20 -22 -7 -51 -18 -65 -25 -322 -157 -399
-199 -497 -272 -40 -29 -76 -53 -79 -53 -17 0 -197 -149 -323 -266 -113 -106
-371 -403 -371 -428 0 -3 -24 -39 -53 -79 -30 -39 -71 -103 -93 -142 -79 -144
-204 -401 -204 -420 0 -4 -7 -21 -14 -38 -21 -45 -74 -210 -82 -254 -4 -21
-10 -42 -14 -48 -4 -5 -15 -53 -25 -105 -9 -52 -21 -102 -25 -111 -4 -8 -13
-73 -20 -145 -6 -71 -15 -136 -20 -145 -21 -40 1 -581 30 -744 22 -122 51
-262 60 -280 5 -11 14 -45 21 -75 6 -30 17 -61 23 -69 6 -8 10 -17 9 -20 -5
-11 44 -150 82 -236 33 -73 138 -284 165 -330 16 -27 38 -66 48 -85 11 -19 42
-65 69 -102 26 -36 55 -76 63 -89 76 -113 341 -408 406 -453 17 -11 67 -51
109 -89 162 -140 343 -257 575 -372 69 -34 157 -74 195 -89 39 -15 84 -34 100
-42 29 -13 103 -35 245 -74 36 -10 72 -20 80 -24 8 -3 69 -15 135 -27 66 -11
147 -26 180 -32 82 -15 711 -14 790 1 33 6 103 18 155 26 52 9 102 19 110 23
8 3 19 5 24 4 5 -1 16 1 25 5 9 4 48 16 86 26 126 33 258 77 345 115 100 44
373 182 423 215 32 21 62 38 67 38 5 0 13 6 17 14 4 7 17 18 29 24 69 36 331
251 443 363 72 71 214 234 256 293 11 15 32 44 48 64 15 19 37 51 49 71 12 20
28 40 35 44 7 4 13 12 13 17 0 5 17 35 38 67 52 78 242 467 242 494 0 6 7 23
15 37 7 15 22 54 31 87 10 33 19 65 20 70 2 6 11 39 20 75 8 36 18 72 21 80
11 28 12 35 28 130 9 52 20 111 26 130 38 140 38 780 0 920 -6 19 -18 82 -27
140 -9 58 -19 110 -24 115 -4 6 -11 28 -14 50 -21 121 -123 388 -226 595 -45
91 -58 115 -111 205 -45 77 -179 262 -246 340 -38 42 -78 92 -90 109 -26 38
-186 196 -230 228 -18 13 -70 56 -116 96 -47 39 -87 72 -91 72 -4 0 -12 5 -19
10 -27 24 -154 113 -187 132 -19 10 -57 32 -85 48 -46 27 -257 132 -330 165
-87 39 -239 92 -241 84 0 -2 -7 1 -15 7 -8 7 -41 18 -74 25 -33 7 -64 15 -70
19 -5 4 -53 15 -105 24 -52 10 -104 21 -115 26 -11 5 -67 14 -125 19 -58 6
-123 13 -145 17 -62 9 -518 12 -535 3z m1286 -1024 c478 -82 861 -470 939
-949 22 -137 22 -1903 0 -2032 -84 -486 -461 -865 -944 -948 -137 -23 -1900
-24 -2037 -1 -485 83 -865 459 -949 939 -13 76 -15 227 -15 1026 0 1032 0
1033 62 1210 137 389 481 682 883 754 123 22 1934 23 2061 1z"/>
<path d="M3498 4655 c-37 -8 -105 -29 -151 -48 -207 -84 -369 -246 -454 -453
-65 -160 -64 -139 -61 -1190 3 -876 5 -954 21 -1009 94 -316 334 -543 641
-606 85 -18 151 -19 1006 -19 855 0 921 1 1006 19 320 66 579 325 645 645 18
85 19 151 19 1006 0 868 -1 920 -20 1010 -67 327 -341 590 -674 649 -95 17
-1892 13 -1978 -4z m2237 -304 c174 -79 181 -326 12 -413 -31 -16 -60 -22
-108 -22 -57 0 -74 4 -115 30 -88 54 -131 163 -105 262 15 53 73 119 126 143
52 24 138 24 190 0z m-1075 -296 c235 -35 435 -140 603 -314 133 -138 211
-271 262 -446 184 -638 -260 -1289 -924 -1355 -305 -31 -598 68 -820 277 -48
45 -106 106 -129 136 -247 319 -289 768 -106 1130 209 411 658 642 1114 572z"/>
<path d="M4355 3745 c-94 -17 -209 -66 -292 -124 -300 -211 -405 -606 -251
-941 221 -476 857 -585 1227 -210 227 230 281 580 135 875 -145 295 -485 461
-819 400z"/>
</g>
</svg>
