<?xml version="1.0" standalone="no"?>
<!DOCTYPE svg PUBLIC "-//W3C//DTD SVG 20010904//EN"
 "http://www.w3.org/TR/2001/REC-SVG-20010904/DTD/svg10.dtd">
<svg version="1.0" xmlns="http://www.w3.org/2000/svg"
 width="360.000000pt" height="360.000000pt" viewBox="0 0 360.000000 360.000000"
 preserveAspectRatio="xMidYMid meet">

<g transform="translate(0.000000,360.000000) scale(0.100000,-0.100000)"
fill="#000000" stroke="none">
<path d="M1705 3243 c-571 -50 -1042 -397 -1249 -921 -62 -155 -87 -282 -93
-477 -4 -144 -2 -188 15 -290 102 -589 535 -1040 1126 -1177 140 -32 385 -36
541 -10 295 51 547 177 759 382 178 171 290 342 366 555 225 635 -8 1334 -568
1702 -166 110 -387 195 -573 222 -83 12 -263 20 -324 14z m-358 -630 c108 -51
131 -218 41 -299 -107 -98 -271 -51 -309 88 -42 156 118 282 268 211z m1061
-492 c67 -30 143 -112 174 -189 22 -55 23 -67 26 -444 l3 -388 -155 0 -154 0
-4 313 c-3 312 -3 313 -28 362 -33 64 -76 90 -150 89 -76 0 -124 -26 -158 -83
l-27 -46 -3 -317 -3 -318 -155 0 -154 0 0 510 0 510 155 0 155 0 0 -65 0 -65
41 45 c83 89 152 116 289 112 73 -3 107 -9 148 -26z m-988 -511 l0 -510 -160
0 -160 0 0 510 0 510 160 0 160 0 0 -510z"/>
</g>
</svg>
